{"title":"Beneath.the.Darkness.2011.DVDRip.XviD-OCW.avi","uid":6970908,"size":1126752698,"categoryP":"video","categoryS":"movies","magnet":"?xt=urn:btih:8514e07f50816d733a06faeef8f8a6688c457055&amp;dn=Beneath.the.Darkness.2011.DVDRip.XviD-OCW.avi&amp;tr=udp%3A%2F%2Ftracker.openbittorrent.com%3A80&amp;tr=udp%3A%2F%2Fopen.demonii.com%3A1337&amp;tr=udp%3A%2F%2Ftracker.coppersurfer.tk%3A6969&amp;tr=udp%3A%2F%2Fexodus.desync.com%3A6969","seeders":2,"leechers":2,"uploader":"Hackulus","files":-1,"time":1327088635,"description":"\nGeneral\nComplete name                    : Beneath.the.Darkness.2011.DVDRip.XviD-OCW.avi\nFormat                         : AVI\nFormat/Info                      : Audio Video Interleave\nFile size                        : 1.02 GiB\nDuration                       : 1h 31mn\nOverall bit rate               : 1 592 Kbps\nWriting library                  : MPlayer\n\nVideo\nID                             : 0\nFormat                         : MPEG-4 Visual\nFormat profile                 : Advanced Simple@L5\nFormat settings, BVOP            : 2\nFormat settings, QPel            : No\nFormat settings, GMC           : No warppoints\nFormat settings, Matrix          : Default (H.263)\nCodec ID                       : XVID\nCodec ID/Hint                    : XviD\nDuration                       : 1h 31mn\nBit rate                       : 1 330 Kbps\nWidth                            : 640 pixels\nHeight                         : 352 pixels\nDisplay aspect ratio           : 16:9\nFrame rate                     : 29.970 fps\nColor space                      : YUV\nChroma subsampling             : 4:2:0\nBit depth                        : 8 bits\nScan type                        : Progressive\nCompression mode               : Lossy\nBits/(Pixel*Frame)             : 0.197\nStream size                      : 872 MiB (84%)\nWriting library                  : XviD 63\n\nAudio\nID                             : 1\nFormat                         : MPEG Audio\nFormat version                 : Version 1\nFormat profile                 : Layer 3\nMode                           : Joint stereo\nCodec ID                       : 55\nCodec ID/Hint                    : MP3\nDuration                       : 1h 31mn\nBit rate mode                    : Constant\nBit rate                       : 256 Kbps\nChannel(s)                     : 2 channels\nSampling rate                    : 44.1 KHz\nCompression mode               : Lossy\nDelay relative to video          : 33ms\nStream size                      : 168 MiB (16%)\nAlignment                        : Split accross interleaves\nInterleave, duration           : 500 ms (14.98 video frames)\nInterleave, preload duration   : 500 ms\nWriting library                  : LAME3.98.4\n\nPlot\n\nAfter watching their best friend get murdered, a group of teens struggle\nto expose a local hero as the vicious killer and keep from becoming his\nnext victims.\n\nCast\n\nDennis Quaid ... Ely\nTony Oller ... Travis\nAimee Teegarden ... Abby\nStephen Lunsford ... Brian\nDevon Werkheiser ... Danny\nBrett Cullen ... Sgt. Nickerson\nDahlia Waingort ... Ms. Moore\n","torrent":{"xt":"urn:btih:8514e07f50816d733a06faeef8f8a6688c457055","amp;dn":"Beneath.the.Darkness.2011.DVDRip.XviD-OCW.avi","amp;tr":["udp%3A%2F%2Ftracker.openbittorrent.com%3A80","udp%3A%2F%2Fopen.demonii.com%3A1337","udp%3A%2F%2Ftracker.coppersurfer.tk%3A6969","udp%3A%2F%2Fexodus.desync.com%3A6969"],"infoHash":"8514e07f50816d733a06faeef8f8a6688c457055","infoHashBuffer":{"type":"Buffer","data":[133,20,224,127,80,129,109,115,58,6,250,238,248,248,166,104,140,69,112,85]},"announce":[],"urlList":[]}}